<mxfile host="app.diagrams.net" agent="Mozilla/5.0 (Macintosh; Intel Mac OS X 10_15_7) AppleWebKit/537.36 (KHTML, like Gecko) Chrome/139.0.0.0 Safari/537.36" version="28.2.5">
  <diagram name="第 1 页" id="dUlY7sl3E_Z04h0EigcS">
    <mxGraphModel dx="2128" dy="768" grid="1" gridSize="10" guides="1" tooltips="1" connect="1" arrows="1" fold="1" page="1" pageScale="1" pageWidth="827" pageHeight="1169" math="0" shadow="0">
      <root>
        <mxCell id="0" />
        <mxCell id="1" parent="0" />
        <mxCell id="jIv1I_aahSQEFRo3IrdE-1" value="&lt;font style=&quot;font-size: 15px;&quot;&gt;Input:&lt;/font&gt;&lt;div&gt;&lt;font style=&quot;font-size: 15px;&quot;&gt;1.&amp;nbsp;&lt;span style=&quot;background-color: rgb(255, 255, 255); color: rgb(31, 35, 40); font-family: -apple-system, &amp;quot;system-ui&amp;quot;, &amp;quot;Segoe UI&amp;quot;, &amp;quot;Noto Sans&amp;quot;, Helvetica, Arial, sans-serif, &amp;quot;Apple Color Emoji&amp;quot;, &amp;quot;Segoe UI Emoji&amp;quot;; text-align: start;&quot;&gt;Latest transaction record file&amp;nbsp;&lt;/span&gt;&lt;/font&gt;&lt;/div&gt;&lt;div&gt;&lt;span style=&quot;background-color: rgb(255, 255, 255); color: rgb(31, 35, 40); font-family: -apple-system, &amp;quot;system-ui&amp;quot;, &amp;quot;Segoe UI&amp;quot;, &amp;quot;Noto Sans&amp;quot;, Helvetica, Arial, sans-serif, &amp;quot;Apple Color Emoji&amp;quot;, &amp;quot;Segoe UI Emoji&amp;quot;; text-align: start;&quot;&gt;&lt;font style=&quot;font-size: 15px;&quot;&gt;(no dummy)&lt;/font&gt;&lt;/span&gt;&lt;/div&gt;&lt;div&gt;&lt;font style=&quot;font-size: 15px;&quot;&gt;&lt;span style=&quot;background-color: rgb(255, 255, 255); color: rgb(31, 35, 40); font-family: -apple-system, &amp;quot;system-ui&amp;quot;, &amp;quot;Segoe UI&amp;quot;, &amp;quot;Noto Sans&amp;quot;, Helvetica, Arial, sans-serif, &amp;quot;Apple Color Emoji&amp;quot;, &amp;quot;Segoe UI Emoji&amp;quot;; text-align: start;&quot;&gt;2.&amp;nbsp;&lt;/span&gt;&lt;span style=&quot;background-color: rgb(255, 255, 255); color: rgb(31, 35, 40); font-family: -apple-system, &amp;quot;system-ui&amp;quot;, &amp;quot;Segoe UI&amp;quot;, &amp;quot;Noto Sans&amp;quot;, Helvetica, Arial, sans-serif, &amp;quot;Apple Color Emoji&amp;quot;, &amp;quot;Segoe UI Emoji&amp;quot;; text-align: start;&quot;&gt;Previous transaction record file&lt;/span&gt;&lt;/font&gt;&lt;/div&gt;&lt;div&gt;&lt;span style=&quot;background-color: rgb(255, 255, 255); color: rgb(31, 35, 40); font-family: -apple-system, &amp;quot;system-ui&amp;quot;, &amp;quot;Segoe UI&amp;quot;, &amp;quot;Noto Sans&amp;quot;, Helvetica, Arial, sans-serif, &amp;quot;Apple Color Emoji&amp;quot;, &amp;quot;Segoe UI Emoji&amp;quot;; text-align: start;&quot;&gt;&lt;font style=&quot;font-size: 15px;&quot;&gt;(dummy mapped)&lt;/font&gt;&lt;/span&gt;&lt;/div&gt;" style="rounded=1;whiteSpace=wrap;html=1;" vertex="1" parent="1">
          <mxGeometry x="30" y="60" width="260" height="110" as="geometry" />
        </mxCell>
        <mxCell id="jIv1I_aahSQEFRo3IrdE-2" value="&lt;font style=&quot;font-size: 15px;&quot;&gt;Output:&lt;br&gt;&lt;/font&gt;&lt;div style=&quot;text-align: left;&quot;&gt;&lt;span style=&quot;color: rgb(31, 35, 40); font-family: -apple-system, &amp;quot;system-ui&amp;quot;, &amp;quot;Segoe UI&amp;quot;, &amp;quot;Noto Sans&amp;quot;, Helvetica, Arial, sans-serif, &amp;quot;Apple Color Emoji&amp;quot;, &amp;quot;Segoe UI Emoji&amp;quot;; background-color: rgb(255, 255, 255);&quot;&gt;&lt;font style=&quot;font-size: 15px;&quot;&gt;&amp;nbsp; &amp;nbsp; 1.List of newly appeared products&lt;/font&gt;&lt;/span&gt;&lt;/div&gt;&lt;div style=&quot;text-align: left;&quot;&gt;&lt;font style=&quot;font-size: 15px;&quot;&gt;&lt;span style=&quot;color: rgb(31, 35, 40); font-family: -apple-system, &amp;quot;system-ui&amp;quot;, &amp;quot;Segoe UI&amp;quot;, &amp;quot;Noto Sans&amp;quot;, Helvetica, Arial, sans-serif, &amp;quot;Apple Color Emoji&amp;quot;, &amp;quot;Segoe UI Emoji&amp;quot;; background-color: rgb(255, 255, 255);&quot;&gt;&lt;font style=&quot;&quot;&gt;&amp;nbsp; &amp;nbsp; &amp;nbsp; (&lt;/font&gt;&lt;/span&gt;&lt;span style=&quot;background-color: rgb(255, 255, 255); color: rgb(31, 35, 40);&quot;&gt;&lt;font style=&quot;&quot; face=&quot;Helvetica&quot;&gt;New_product.xlsx&lt;/font&gt;&lt;/span&gt;&lt;span style=&quot;background-color: light-dark(rgb(255, 255, 255), rgb(18, 18, 18)); color: light-dark(rgb(31, 35, 40), rgb(205, 208, 212)); font-family: -apple-system, &amp;quot;system-ui&amp;quot;, &amp;quot;Segoe UI&amp;quot;, &amp;quot;Noto Sans&amp;quot;, Helvetica, Arial, sans-serif, &amp;quot;Apple Color Emoji&amp;quot;, &amp;quot;Segoe UI Emoji&amp;quot;;&quot;&gt;)&lt;/span&gt;&lt;/font&gt;&lt;/div&gt;&lt;div style=&quot;text-align: left;&quot;&gt;&lt;font style=&quot;font-size: 15px;&quot;&gt;&lt;span style=&quot;background-color: light-dark(rgb(255, 255, 255), rgb(18, 18, 18)); color: light-dark(rgb(31, 35, 40), rgb(205, 208, 212)); font-family: -apple-system, &amp;quot;system-ui&amp;quot;, &amp;quot;Segoe UI&amp;quot;, &amp;quot;Noto Sans&amp;quot;, Helvetica, Arial, sans-serif, &amp;quot;Apple Color Emoji&amp;quot;, &amp;quot;Segoe UI Emoji&amp;quot;;&quot;&gt;&amp;nbsp; &amp;nbsp; 2.&amp;nbsp;&lt;/span&gt;&lt;span style=&quot;background-color: rgb(255, 255, 255); color: rgb(31, 35, 40); font-family: -apple-system, &amp;quot;system-ui&amp;quot;, &amp;quot;Segoe UI&amp;quot;, &amp;quot;Noto Sans&amp;quot;, Helvetica, Arial, sans-serif, &amp;quot;Apple Color Emoji&amp;quot;, &amp;quot;Segoe UI Emoji&amp;quot;;&quot;&gt;TRANSECTION_DETAIL_with_dummy_new.xlsx&lt;/span&gt;&lt;span style=&quot;background-color: rgb(255, 255, 255); color: rgb(31, 35, 40); font-family: -apple-system, &amp;quot;system-ui&amp;quot;, &amp;quot;Segoe UI&amp;quot;, &amp;quot;Noto Sans&amp;quot;, Helvetica, Arial, sans-serif, &amp;quot;Apple Color Emoji&amp;quot;, &amp;quot;Segoe UI Emoji&amp;quot;;&quot;&gt;&amp;nbsp;&lt;/span&gt;&lt;/font&gt;&lt;/div&gt;&lt;div style=&quot;text-align: left;&quot;&gt;&lt;font style=&quot;font-size: 15px;&quot;&gt;&lt;span style=&quot;background-color: rgb(255, 255, 255); color: rgb(31, 35, 40); font-family: -apple-system, &amp;quot;system-ui&amp;quot;, &amp;quot;Segoe UI&amp;quot;, &amp;quot;Noto Sans&amp;quot;, Helvetica, Arial, sans-serif, &amp;quot;Apple Color Emoji&amp;quot;, &amp;quot;Segoe UI Emoji&amp;quot;;&quot;&gt;&amp;nbsp; &amp;nbsp; &amp;nbsp; (&lt;/span&gt;&lt;span style=&quot;background-color: rgb(255, 255, 255); color: rgb(31, 35, 40); font-family: -apple-system, &amp;quot;system-ui&amp;quot;, &amp;quot;Segoe UI&amp;quot;, &amp;quot;Noto Sans&amp;quot;, Helvetica, Arial, sans-serif, &amp;quot;Apple Color Emoji&amp;quot;, &amp;quot;Segoe UI Emoji&amp;quot;;&quot;&gt;New/unseen products are temporarily assigned&amp;nbsp; &amp;nbsp; &amp;nbsp; &amp;nbsp; &amp;nbsp; &amp;nbsp; FV_dummy = 0&lt;/span&gt;&lt;/font&gt;&lt;span style=&quot;font-size: 15px; background-color: light-dark(rgb(255, 255, 255), rgb(18, 18, 18)); color: light-dark(rgb(31, 35, 40), rgb(205, 208, 212)); font-family: -apple-system, &amp;quot;system-ui&amp;quot;, &amp;quot;Segoe UI&amp;quot;, &amp;quot;Noto Sans&amp;quot;, Helvetica, Arial, sans-serif, &amp;quot;Apple Color Emoji&amp;quot;, &amp;quot;Segoe UI Emoji&amp;quot;;&quot;&gt;)&lt;/span&gt;&lt;/div&gt;" style="rounded=1;whiteSpace=wrap;html=1;" vertex="1" parent="1">
          <mxGeometry x="450" y="45" width="370" height="140" as="geometry" />
        </mxCell>
        <mxCell id="jIv1I_aahSQEFRo3IrdE-3" value="" style="endArrow=classic;html=1;rounded=0;" edge="1" parent="1">
          <mxGeometry relative="1" as="geometry">
            <mxPoint x="290" y="120" as="sourcePoint" />
            <mxPoint x="440" y="120" as="targetPoint" />
            <Array as="points" />
          </mxGeometry>
        </mxCell>
        <mxCell id="jIv1I_aahSQEFRo3IrdE-4" value="Automation&amp;nbsp;&lt;span style=&quot;background-color: light-dark(#ffffff, var(--ge-dark-color, #121212)); color: light-dark(rgb(0, 0, 0), rgb(255, 255, 255));&quot;&gt;Process:&lt;/span&gt;&lt;div&gt;&lt;div&gt;Run code in step 1&lt;/div&gt;&lt;/div&gt;" style="edgeLabel;resizable=0;html=1;;align=center;verticalAlign=middle;" connectable="0" vertex="1" parent="jIv1I_aahSQEFRo3IrdE-3">
          <mxGeometry relative="1" as="geometry" />
        </mxCell>
        <mxCell id="jIv1I_aahSQEFRo3IrdE-7" value="" style="endArrow=classic;html=1;rounded=0;exitX=0.5;exitY=1;exitDx=0;exitDy=0;" edge="1" parent="1" source="jIv1I_aahSQEFRo3IrdE-2">
          <mxGeometry relative="1" as="geometry">
            <mxPoint x="634.5" y="200" as="sourcePoint" />
            <mxPoint x="634.5" y="320" as="targetPoint" />
          </mxGeometry>
        </mxCell>
        <mxCell id="jIv1I_aahSQEFRo3IrdE-10" value="&lt;font&gt;Manual Process:&lt;/font&gt;&lt;div&gt;&lt;font&gt;&lt;span style=&quot;color: rgb(31, 35, 40); font-family: -apple-system, &amp;quot;system-ui&amp;quot;, &amp;quot;Segoe UI&amp;quot;, &amp;quot;Noto Sans&amp;quot;, Helvetica, Arial, sans-serif, &amp;quot;Apple Color Emoji&amp;quot;, &amp;quot;Segoe UI Emoji&amp;quot;; text-align: start; text-wrap-mode: wrap;&quot;&gt;&amp;nbsp;&lt;/span&gt;&lt;span style=&quot;color: rgb(31, 35, 40); text-align: start; text-wrap-mode: wrap;&quot;&gt;&lt;font style=&quot;&quot; face=&quot;Helvetica&quot;&gt;map each new product to the correct FV_dummy in step 2&lt;/font&gt;&lt;/span&gt;&lt;/font&gt;&lt;/div&gt;" style="edgeLabel;html=1;align=center;verticalAlign=middle;resizable=0;points=[];" vertex="1" connectable="0" parent="jIv1I_aahSQEFRo3IrdE-7">
          <mxGeometry x="-0.0333" y="-2" relative="1" as="geometry">
            <mxPoint as="offset" />
          </mxGeometry>
        </mxCell>
        <mxCell id="jIv1I_aahSQEFRo3IrdE-11" value="&lt;div&gt;&lt;span style=&quot;color: rgb(31, 35, 40); font-family: -apple-system, &amp;quot;system-ui&amp;quot;, &amp;quot;Segoe UI&amp;quot;, &amp;quot;Noto Sans&amp;quot;, Helvetica, Arial, sans-serif, &amp;quot;Apple Color Emoji&amp;quot;, &amp;quot;Segoe UI Emoji&amp;quot;; font-size: 16px; text-align: start; background-color: rgb(255, 255, 255);&quot;&gt;Output:&lt;/span&gt;&lt;/div&gt;&lt;span style=&quot;color: rgb(31, 35, 40); font-family: -apple-system, &amp;quot;system-ui&amp;quot;, &amp;quot;Segoe UI&amp;quot;, &amp;quot;Noto Sans&amp;quot;, Helvetica, Arial, sans-serif, &amp;quot;Apple Color Emoji&amp;quot;, &amp;quot;Segoe UI Emoji&amp;quot;; font-size: 16px; text-align: start; background-color: rgb(255, 255, 255);&quot;&gt;1. products of dummies.xlsxl&amp;nbsp;&lt;/span&gt;&lt;div&gt;&lt;span style=&quot;color: rgb(31, 35, 40); font-family: -apple-system, &amp;quot;system-ui&amp;quot;, &amp;quot;Segoe UI&amp;quot;, &amp;quot;Noto Sans&amp;quot;, Helvetica, Arial, sans-serif, &amp;quot;Apple Color Emoji&amp;quot;, &amp;quot;Segoe UI Emoji&amp;quot;; font-size: 16px; text-align: start; background-color: rgb(255, 255, 255);&quot;&gt;(list of newly mapped products from Step 2.)&lt;/span&gt;&lt;div&gt;&lt;span style=&quot;color: rgb(31, 35, 40); font-family: -apple-system, &amp;quot;system-ui&amp;quot;, &amp;quot;Segoe UI&amp;quot;, &amp;quot;Noto Sans&amp;quot;, Helvetica, Arial, sans-serif, &amp;quot;Apple Color Emoji&amp;quot;, &amp;quot;Segoe UI Emoji&amp;quot;; font-size: 16px; text-align: start; background-color: rgb(255, 255, 255);&quot;&gt;&lt;br&gt;&lt;/span&gt;&lt;/div&gt;&lt;/div&gt;" style="rounded=1;whiteSpace=wrap;html=1;" vertex="1" parent="1">
          <mxGeometry x="525" y="320" width="220" height="110" as="geometry" />
        </mxCell>
        <mxCell id="jIv1I_aahSQEFRo3IrdE-12" value="&lt;font style=&quot;font-size: 15px;&quot;&gt;Input:&lt;/font&gt;&lt;div&gt;&lt;div style=&quot;text-align: left;&quot;&gt;&lt;span style=&quot;background-color: light-dark(rgb(255, 255, 255), rgb(18, 18, 18)); color: light-dark(rgb(31, 35, 40), rgb(205, 208, 212)); font-family: -apple-system, &amp;quot;system-ui&amp;quot;, &amp;quot;Segoe UI&amp;quot;, &amp;quot;Noto Sans&amp;quot;, Helvetica, Arial, sans-serif, &amp;quot;Apple Color Emoji&amp;quot;, &amp;quot;Segoe UI Emoji&amp;quot;; font-size: 15px;&quot;&gt;1.TRANSECTION_DETAIL_with_dummy_new.xlsx&lt;/span&gt;&lt;/div&gt;&lt;div style=&quot;text-align: left;&quot;&gt;&lt;font style=&quot;font-size: 15px;&quot;&gt;2.&amp;nbsp;&lt;span style=&quot;background-color: rgb(255, 255, 255); color: rgb(31, 35, 40); font-family: -apple-system, &amp;quot;system-ui&amp;quot;, &amp;quot;Segoe UI&amp;quot;, &amp;quot;Noto Sans&amp;quot;, Helvetica, Arial, sans-serif, &amp;quot;Apple Color Emoji&amp;quot;, &amp;quot;Segoe UI Emoji&amp;quot;;&quot;&gt;products of dummies.xlsxl&lt;/span&gt;&lt;/font&gt;&lt;/div&gt;&lt;/div&gt;" style="rounded=1;whiteSpace=wrap;html=1;" vertex="1" parent="1">
          <mxGeometry x="-20" y="342.5" width="350" height="65" as="geometry" />
        </mxCell>
        <mxCell id="jIv1I_aahSQEFRo3IrdE-18" value="" style="endArrow=classic;html=1;rounded=0;exitX=0.016;exitY=0.954;exitDx=0;exitDy=0;entryX=0.5;entryY=0;entryDx=0;entryDy=0;exitPerimeter=0;" edge="1" parent="1" source="jIv1I_aahSQEFRo3IrdE-2" target="jIv1I_aahSQEFRo3IrdE-12">
          <mxGeometry relative="1" as="geometry">
            <mxPoint x="330" y="300" as="sourcePoint" />
            <mxPoint x="490" y="300" as="targetPoint" />
          </mxGeometry>
        </mxCell>
        <mxCell id="jIv1I_aahSQEFRo3IrdE-19" value="input" style="edgeLabel;resizable=0;html=1;;align=center;verticalAlign=middle;" connectable="0" vertex="1" parent="jIv1I_aahSQEFRo3IrdE-18">
          <mxGeometry relative="1" as="geometry" />
        </mxCell>
        <mxCell id="jIv1I_aahSQEFRo3IrdE-21" value="" style="endArrow=classic;html=1;rounded=0;entryX=1;entryY=0.5;entryDx=0;entryDy=0;exitX=0;exitY=0.5;exitDx=0;exitDy=0;" edge="1" parent="1" source="jIv1I_aahSQEFRo3IrdE-11" target="jIv1I_aahSQEFRo3IrdE-12">
          <mxGeometry relative="1" as="geometry">
            <mxPoint x="330" y="300" as="sourcePoint" />
            <mxPoint x="490" y="300" as="targetPoint" />
          </mxGeometry>
        </mxCell>
        <mxCell id="jIv1I_aahSQEFRo3IrdE-22" value="input" style="edgeLabel;resizable=0;html=1;;align=center;verticalAlign=middle;" connectable="0" vertex="1" parent="jIv1I_aahSQEFRo3IrdE-21">
          <mxGeometry relative="1" as="geometry" />
        </mxCell>
        <mxCell id="jIv1I_aahSQEFRo3IrdE-24" value="&lt;font style=&quot;font-size: 15px;&quot;&gt;Output:&lt;/font&gt;&lt;div&gt;&lt;span style=&quot;color: rgb(31, 35, 40); font-family: -apple-system, &amp;quot;system-ui&amp;quot;, &amp;quot;Segoe UI&amp;quot;, &amp;quot;Noto Sans&amp;quot;, Helvetica, Arial, sans-serif, &amp;quot;Apple Color Emoji&amp;quot;, &amp;quot;Segoe UI Emoji&amp;quot;; text-align: start; background-color: rgb(255, 255, 255);&quot;&gt;&lt;font style=&quot;font-size: 15px;&quot;&gt;TRANSECTION DETAIL with dummy_new.xlsx&lt;/font&gt;&lt;/span&gt;&lt;/div&gt;&lt;div&gt;&lt;span style=&quot;color: rgb(31, 35, 40); font-family: -apple-system, &amp;quot;system-ui&amp;quot;, &amp;quot;Segoe UI&amp;quot;, &amp;quot;Noto Sans&amp;quot;, Helvetica, Arial, sans-serif, &amp;quot;Apple Color Emoji&amp;quot;, &amp;quot;Segoe UI Emoji&amp;quot;; text-align: start; background-color: rgb(255, 255, 255);&quot;&gt;&lt;font style=&quot;font-size: 15px;&quot;&gt;(Final file, with all products fully mapped to their FV_dummy categories.)&lt;/font&gt;&lt;/span&gt;&lt;/div&gt;" style="rounded=1;whiteSpace=wrap;html=1;" vertex="1" parent="1">
          <mxGeometry x="25" y="555" width="260" height="135" as="geometry" />
        </mxCell>
        <mxCell id="jIv1I_aahSQEFRo3IrdE-25" value="" style="endArrow=classic;html=1;rounded=0;" edge="1" parent="1">
          <mxGeometry relative="1" as="geometry">
            <mxPoint x="140" y="410" as="sourcePoint" />
            <mxPoint x="140" y="550" as="targetPoint" />
          </mxGeometry>
        </mxCell>
        <mxCell id="jIv1I_aahSQEFRo3IrdE-26" value="Automation Process:&lt;div&gt;Run code in step3&lt;/div&gt;" style="edgeLabel;resizable=0;html=1;;align=center;verticalAlign=middle;" connectable="0" vertex="1" parent="jIv1I_aahSQEFRo3IrdE-25">
          <mxGeometry relative="1" as="geometry" />
        </mxCell>
      </root>
    </mxGraphModel>
  </diagram>
</mxfile>
